<svg width="40" height="40" viewBox="0 0 40 40" fill="none" xmlns="http://www.w3.org/2000/svg">
<g clip-path="url(#clip0_177_9095)">
<path d="M3.0791 5.25369C3.0791 3.95319 4.13337 2.89893 5.43387 2.89893H33.8993C35.1998 2.89893 36.254 3.95319 36.254 5.25369V33.719C36.254 35.0195 35.1998 36.0738 33.8993 36.0738H5.43387C4.13337 36.0738 3.0791 35.0195 3.0791 33.719V5.25369Z" fill="#0A66C2"/>
<path d="M10.5254 13.2014C12.1148 13.2014 13.4033 11.9129 13.4033 10.3235C13.4033 8.73404 12.1148 7.44556 10.5254 7.44556C8.93595 7.44556 7.64746 8.73404 7.64746 10.3235C7.64746 11.9129 8.93595 13.2014 10.5254 13.2014Z" fill="white"/>
<path d="M16.039 15.3283H20.8086V17.5133C20.8086 17.5133 22.1029 14.9246 25.6245 14.9246C28.766 14.9246 31.3683 16.4722 31.3683 21.1892V31.1362H26.4256V22.3945C26.4256 19.6119 24.9401 19.3059 23.808 19.3059C21.4587 19.3059 21.0565 21.3323 21.0565 22.7575V31.1362H16.039V15.3283Z" fill="white"/>
<path d="M8.01662 15.3283H13.0341V31.1362H8.01662V15.3283Z" fill="white"/>
</g>
<defs>
<clipPath id="clip0_177_9095">
<rect width="39.6374" height="39.6374" fill="white" transform="translate(0.202148 0.0930176)"/>
</clipPath>
</defs>
</svg>
