<svg width="41" height="40" viewBox="0 0 41 40" fill="none" xmlns="http://www.w3.org/2000/svg">
<path d="M20.3086 14.9567C18.9946 14.9567 17.7343 15.4787 16.8051 16.4079C15.8759 17.3371 15.3539 18.5974 15.3539 19.9113C15.3539 21.2253 15.8759 22.4856 16.8051 23.4148C17.7343 24.344 18.9946 24.866 20.3086 24.866C21.6225 24.866 22.8828 24.344 23.812 23.4148C24.7412 22.4856 25.2632 21.2253 25.2632 19.9113C25.2632 18.5974 24.7412 17.3371 23.812 16.4079C22.8828 15.4787 21.6225 14.9567 20.3086 14.9567ZM20.3086 11.6535C22.4987 11.6535 24.5991 12.5236 26.1476 14.0722C27.6963 15.6208 28.5664 17.7212 28.5664 19.9113C28.5664 22.1015 27.6963 24.2019 26.1476 25.7504C24.5991 27.2991 22.4987 28.1691 20.3086 28.1691C18.1184 28.1691 16.0181 27.2991 14.4694 25.7504C12.9208 24.2019 12.0508 22.1015 12.0508 19.9113C12.0508 17.7212 12.9208 15.6208 14.4694 14.0722C16.0181 12.5236 18.1184 11.6535 20.3086 11.6535ZM31.0437 11.2407C31.0437 11.7882 30.8262 12.3133 30.4391 12.7004C30.0519 13.0876 29.5267 13.3051 28.9792 13.3051C28.4318 13.3051 27.9066 13.0876 27.5194 12.7004C27.1323 12.3133 26.9148 11.7882 26.9148 11.2407C26.9148 10.6931 27.1323 10.168 27.5194 9.78088C27.9066 9.39372 28.4318 9.17621 28.9792 9.17621C29.5267 9.17621 30.0519 9.39372 30.4391 9.78088C30.8262 10.168 31.0437 10.6931 31.0437 11.2407ZM20.3086 6.69887C16.2226 6.69887 15.5554 6.71043 13.6544 6.79466C12.3596 6.85577 11.4909 7.02918 10.6849 7.34298C10.0105 7.59061 9.40069 7.98752 8.90124 8.50402C8.38432 9.00346 7.98686 9.61318 7.73854 10.2877C7.42475 11.097 7.25133 11.964 7.19188 13.2572C7.106 15.0805 7.09609 15.718 7.09609 19.9113C7.09609 23.9973 7.10765 24.6645 7.19188 26.5655C7.25299 27.8586 7.4264 28.729 7.73854 29.5333C8.01931 30.2518 8.34962 30.7687 8.89794 31.317C9.45451 31.8719 9.97145 32.2039 10.6816 32.4781C11.4975 32.7935 12.3662 32.9686 13.6544 33.028C15.4777 33.1139 16.1153 33.1238 20.3086 33.1238C24.3945 33.1238 25.0617 33.1123 26.9627 33.028C28.2542 32.9669 29.1246 32.7935 29.9305 32.4814C30.604 32.2325 31.2133 31.8364 31.7142 31.322C32.2708 30.7654 32.6028 30.2485 32.8769 29.5383C33.1907 28.7241 33.3658 27.8537 33.4252 26.5655C33.5111 24.7422 33.521 24.1047 33.521 19.9113C33.521 15.8254 33.5095 15.1582 33.4252 13.2572C33.3641 11.9657 33.1907 11.0937 32.8769 10.2877C32.628 9.61387 32.2313 9.00438 31.7159 8.50402C31.2166 7.98684 30.6069 7.58934 29.9322 7.34133C29.1229 7.02753 28.2542 6.85412 26.9627 6.79466C25.1394 6.70878 24.5019 6.69887 20.3086 6.69887ZM20.3086 3.39575C24.7958 3.39575 25.3557 3.41227 27.1163 3.49485C28.8752 3.57742 30.0726 3.85323 31.1263 4.26282C32.2163 4.68232 33.1346 5.25045 34.0528 6.16707C34.8927 6.99268 35.5425 7.99136 35.9571 9.09363C36.365 10.1457 36.6425 11.3447 36.7251 13.1036C36.8027 14.8642 36.8242 15.4241 36.8242 19.9113C36.8242 24.3986 36.8076 24.9585 36.7251 26.7191C36.6425 28.478 36.365 29.6754 35.9571 30.7291C35.5437 31.832 34.8936 32.8308 34.0528 33.6556C33.2271 34.4951 32.2284 35.145 31.1263 35.5599C30.0742 35.9678 28.8752 36.2453 27.1163 36.3278C25.3557 36.4055 24.7958 36.4269 20.3086 36.4269C15.8213 36.4269 15.2614 36.4104 13.5008 36.3278C11.7419 36.2453 10.5445 35.9678 9.49085 35.5599C8.38815 35.1462 7.38929 34.4961 6.56428 33.6556C5.72432 32.8302 5.07446 31.8315 4.66004 30.7291C4.25045 29.677 3.97464 28.478 3.89206 26.7191C3.81444 24.9585 3.79297 24.3986 3.79297 19.9113C3.79297 15.4241 3.80948 14.8642 3.89206 13.1036C3.97464 11.3431 4.25045 10.1473 4.66004 9.09363C5.07332 7.99069 5.72331 6.99172 6.56428 6.16707C7.38952 5.3268 8.38832 4.67692 9.49085 4.26282C10.5445 3.85323 11.7403 3.57742 13.5008 3.49485C15.2614 3.41722 15.8213 3.39575 20.3086 3.39575Z" fill="#D82F8F"/>
</svg>
