<svg width="41" height="40" viewBox="0 0 41 40" fill="none" xmlns="http://www.w3.org/2000/svg">
<g clip-path="url(#clip0_177_9089)">
<mask id="path-1-inside-1_177_9089" fill="white">
<path d="M0.633789 0.0930176H40.2712V39.7304H0.633789V0.0930176Z"/>
</mask>
<path d="M16.2278 34.7397C8.53726 33.3825 2.65625 26.6872 2.65625 18.6348C2.65625 9.67752 9.9849 2.34888 18.9421 2.34888C27.8994 2.34888 35.228 9.67752 35.228 18.6348C35.228 26.6872 29.347 33.3825 21.6564 34.7397L20.7517 34.0159H17.1326L16.2278 34.7397Z" fill="url(#paint0_linear_177_9089)"/>
<path d="M25.2754 23.1585L25.9992 18.6346H21.6563V15.4679C21.6563 14.2012 22.1087 13.206 24.0992 13.206H26.1802V9.04404C25.004 8.86308 23.7373 8.68213 22.5611 8.68213C18.8516 8.68213 16.2277 10.9441 16.2277 15.0155V18.6346H12.1562V23.1585H16.2277V34.6491C17.1325 34.83 18.0373 34.9205 18.942 34.9205C19.8468 34.9205 20.7516 34.83 21.6563 34.6491V23.1585H25.2754Z" fill="white"/>
</g>
<path d="M40.2712 38.0273H0.633789V41.4335H40.2712V38.0273Z" fill="#A0418B" mask="url(#path-1-inside-1_177_9089)"/>
<defs>
<linearGradient id="paint0_linear_177_9089" x1="18.9421" y1="33.7933" x2="18.9421" y2="2.34888" gradientUnits="userSpaceOnUse">
<stop stop-color="#0062E0"/>
<stop offset="1" stop-color="#19AFFF"/>
</linearGradient>
<clipPath id="clip0_177_9089">
<path d="M0.633789 0.0930176H40.2712V39.7304H0.633789V0.0930176Z" fill="white"/>
</clipPath>
</defs>
</svg>
